<svg xmlns="http://www.w3.org/2000/svg" xmlns:xlink="http://www.w3.org/1999/xlink" width="14" height="14" viewBox="0 0 14 14">
  <defs>
    <clipPath id="clip-fill-report">
      <rect width="14" height="14"/>
    </clipPath>
  </defs>
  <g id="fill-report" clip-path="url(#clip-fill-report)">
    <g id="drop" transform="translate(-57.875)">
      <g id="Group_81" data-name="Group 81" transform="translate(65.775 2.352)">
        <g id="Group_80" data-name="Group 80" transform="translate(0)">
          <path id="Path_38209" data-name="Path 38209" d="M280.015,88.889l-.021-.029,0-.008-1.917-2.846-1.917,2.846,0,.008-.021.029a2.413,2.413,0,1,0,3.885,0Z" transform="translate(-275.66 -86.006)" fill="#3a3b4b"/>
        </g>
      </g>
      <g id="Group_83" data-name="Group 83" transform="translate(59.875)">
        <g id="Group_82" data-name="Group 82" transform="translate(0)">
          <path id="Path_38210" data-name="Path 38210" d="M68.188,9.9a3.235,3.235,0,0,1-2.61-5.146l1.26-1.871L64.9,0,60.848,6.009a5.021,5.021,0,1,0,9.05,3.4A3.215,3.215,0,0,1,68.188,9.9Z" transform="translate(-59.875)" fill="#3a3b4b"/>
        </g>
      </g>
    </g>
  </g>
</svg>
