<svg xmlns="http://www.w3.org/2000/svg" xmlns:xlink="http://www.w3.org/1999/xlink" width="14" height="14" viewBox="0 0 14 14">
  <defs>
    <clipPath id="clip-Groundwater_levels">
      <rect width="14" height="14"/>
    </clipPath>
  </defs>
  <g id="Groundwater_levels" data-name="Groundwater – levels" clip-path="url(#clip-Groundwater_levels)">
    <g id="Depth-Groundwater" transform="translate(-3817 1476)">
      <g id="r-kpi-1" transform="translate(3817 -1476)">
        <g id="Group_33" data-name="Group 33" transform="translate(0 0)">
          <path id="Path_38014" data-name="Path 38014" d="M133.042,397.489l-1.036,2.195L130.2,395.85l-1.541,3.265-.764-1.62-2.97,6.3h9.026v-.006h2.071Zm2.26,5.7-1.766-2.278-.726.479-.135-.287-.3-1.3.664-1.407Zm-3.566-2.93-.319.676-.6-.771-.992.654-.468-2.046.835-1.776Zm-3.294-.687-.856,1.813-.359-1.572.664-1.407Z" transform="translate(-123.762 -395.85)" fill="#3a3b4b"/>
          <path id="Path_38015" data-name="Path 38015" d="M107.909,577.143a1.4,1.4,0,0,0,1.06-.5.743.743,0,0,1,1.218,0,1.37,1.37,0,0,0,2.12,0,.743.743,0,0,1,1.218,0,1.37,1.37,0,0,0,2.12,0,.744.744,0,0,1,1.219,0,1.37,1.37,0,0,0,2.12,0,.784.784,0,0,1,.609-.317v-.644a1.4,1.4,0,0,0-1.06.5.744.744,0,0,1-1.219,0,1.371,1.371,0,0,0-2.12,0,.744.744,0,0,1-1.219,0,1.371,1.371,0,0,0-2.12,0,.743.743,0,0,1-1.218,0,1.371,1.371,0,0,0-2.12,0,.743.743,0,0,1-1.218,0,1.4,1.4,0,0,0-1.06-.5v.644a.777.777,0,0,1,.609.317A1.394,1.394,0,0,0,107.909,577.143Z" transform="translate(-106.24 -564.53)" fill="#3a3b4b"/>
          <path id="Path_38016" data-name="Path 38016" d="M107.909,599.513a1.4,1.4,0,0,0,1.06-.5.743.743,0,0,1,1.218,0,1.37,1.37,0,0,0,2.12,0,.743.743,0,0,1,1.218,0,1.37,1.37,0,0,0,2.12,0,.744.744,0,0,1,1.219,0,1.37,1.37,0,0,0,2.12,0,.784.784,0,0,1,.609-.318v-.644a1.4,1.4,0,0,0-1.06.5.744.744,0,0,1-1.219,0,1.371,1.371,0,0,0-2.12,0,.744.744,0,0,1-1.219,0,1.371,1.371,0,0,0-2.12,0,.743.743,0,0,1-1.218,0,1.371,1.371,0,0,0-2.12,0,.743.743,0,0,1-1.218,0,1.4,1.4,0,0,0-1.06-.5v.644a.776.776,0,0,1,.609.318A1.394,1.394,0,0,0,107.909,599.513Z" transform="translate(-106.24 -585.513)" fill="#3a3b4b"/>
          <path id="Path_38017" data-name="Path 38017" d="M107.7,542.329l.423-.685h.447l.4.932.4-.932h1.809l.327.73.327-.73h2.422l.492,1.289.492-1.289h2.581l.362.81.363-.81H119.6v-.814H106.24v.814h1.04Z" transform="translate(-106.24 -531.841)" fill="#3a3b4b"/>
        </g>
      </g>
    </g>
  </g>
</svg>
