<svg xmlns="http://www.w3.org/2000/svg" xmlns:xlink="http://www.w3.org/1999/xlink" width="14" height="14" viewBox="0 0 14 14">
  <defs>
    <clipPath id="clip-reservoir-summary">
      <rect width="14" height="14"/>
    </clipPath>
  </defs>
  <g id="reservoir-summary" clip-path="url(#clip-reservoir-summary)">
    <g id="Layer_2" data-name="Layer 2" transform="translate(-404.897 -517.106)">
      <g id="Layer_1" data-name="Layer 1" transform="translate(404.897 518.106)">
        <g id="Path_408" data-name="Path 408" transform="translate(4.914)">
          <path id="Path_430" data-name="Path 430" d="M427.36,518.106v11.355h4.562l-2.579-11.355Z" transform="translate(-432.36 -518.106)" fill="#3a3b4b"/>
        </g>
        <g id="Path_409" data-name="Path 409" transform="translate(9.239 7.289)">
          <path id="Path_431" data-name="Path 431" d="M449.807,552.218a.621.621,0,0,1,.388.124,1.786,1.786,0,0,0,1.9,0,.669.669,0,0,1,.775,0,1.788,1.788,0,0,0,1.9,0,.616.616,0,0,1,.388-.124v-.791a1.705,1.705,0,0,0-.948.273.669.669,0,0,1-.775,0,1.786,1.786,0,0,0-1.9,0,.669.669,0,0,1-.775,0,1.788,1.788,0,0,0-1.9,0,.669.669,0,0,1-.775,0,1.7,1.7,0,0,0-.948-.273v.792a.621.621,0,0,1,.388.123,1.786,1.786,0,0,0,1.9,0,.618.618,0,0,1,.388-.124Z" transform="translate(-451.375 -551.716)" fill="#3a3b4b"/>
        </g>
        <g id="Path_410" data-name="Path 410" transform="translate(9.926 9.349)">
          <path id="Path_432" data-name="Path 432" d="M456.959,561.245a.618.618,0,0,1-.388-.124,1.788,1.788,0,0,0-1.9,0,.616.616,0,0,1-.388.124.623.623,0,0,1-.388-.123,1.787,1.787,0,0,0-1.9,0,.669.669,0,0,1-.775,0,1.7,1.7,0,0,0-.948-.273v.791a.621.621,0,0,1,.388.124,1.786,1.786,0,0,0,1.9,0,.669.669,0,0,1,.775,0,1.786,1.786,0,0,0,1.9,0,.669.669,0,0,1,.775,0,1.788,1.788,0,0,0,1.9,0,.617.617,0,0,1,.388-.124v-.794a1.707,1.707,0,0,0-.95.273.618.618,0,0,1-.388.124Z" transform="translate(-455.199 -560.195)" fill="#3a3b4b"/>
          <path id="Path_432-2" data-name="Path 432" d="M456.959,561.245a.618.618,0,0,1-.388-.124,1.788,1.788,0,0,0-1.9,0,.616.616,0,0,1-.388.124.623.623,0,0,1-.388-.123,1.787,1.787,0,0,0-1.9,0,.669.669,0,0,1-.775,0,1.7,1.7,0,0,0-.948-.273v.791a.621.621,0,0,1,.388.124,1.786,1.786,0,0,0,1.9,0,.669.669,0,0,1,.775,0,1.786,1.786,0,0,0,1.9,0,.669.669,0,0,1,.775,0,1.788,1.788,0,0,0,1.9,0,.617.617,0,0,1,.388-.124v-.794a1.707,1.707,0,0,0-.95.273.618.618,0,0,1-.388.124Z" transform="translate(-455.199 -567.195)" fill="#3a3b4b"/>
          <path id="Path_432-3" data-name="Path 432" d="M456.959,561.245a.618.618,0,0,1-.388-.124,1.788,1.788,0,0,0-1.9,0,.616.616,0,0,1-.388.124.623.623,0,0,1-.388-.123,1.787,1.787,0,0,0-1.9,0,.669.669,0,0,1-.775,0,1.7,1.7,0,0,0-.948-.273v.791a.621.621,0,0,1,.388.124,1.786,1.786,0,0,0,1.9,0,.669.669,0,0,1,.775,0,1.786,1.786,0,0,0,1.9,0,.669.669,0,0,1,.775,0,1.788,1.788,0,0,0,1.9,0,.617.617,0,0,1,.388-.124v-.794a1.707,1.707,0,0,0-.95.273.618.618,0,0,1-.388.124Z" transform="translate(-455.199 -570.195)" fill="#3a3b4b"/>
        </g>
      </g>
    </g>
  </g>
</svg>
